<?xml version="1.0" encoding="UTF-8"?>
<svg xmlns="http://www.w3.org/2000/svg" width="209" height="49" viewBox="0 0 209 49" fill="none">
  <g clip-path="url(#clip0_1690_638)">
    <path d="M48.8709 24.4355L36.7234 5.94299e-05L24.4198 5.99677e-05L36.5673 24.4355L24.4511 48.871L36.7547 48.871L48.9021 24.4355L48.8709 24.4355ZM12.3036 48.871L0 48.871L12.1475 24.4355L-2.13622e-06 6.10352e-05L12.3036 6.04973e-05L24.4511 24.4355L12.3036 48.871Z" fill="#D84327"></path>
  </g>
  <path d="M53.2949 2.48352H55.9317V17.5237H53.2949V2.48352Z" fill="#D84327"></path>
  <path d="M61.8178 2.48352H64.2674L72.3138 12.8907V2.48352H74.9165V17.5237H72.7051L64.4035 6.82696V17.5237H61.8008V2.48352H61.8178Z" fill="#D84327"></path>
  <path d="M80.751 2.48352H83.2006L91.247 12.8907V2.48352H93.8497V17.5237H91.6383L83.3537 6.82696V17.5237H80.751V2.48352Z" fill="#D84327"></path>
  <path d="M98.9194 10.0463V9.99518C98.9194 5.75394 102.186 2.21106 106.796 2.21106C111.406 2.21106 114.638 5.71988 114.638 9.94408V9.99518C114.638 14.2364 111.372 17.7793 106.762 17.7793C102.152 17.7793 98.9194 14.2705 98.9194 10.0463ZM111.865 10.0463V9.99518C111.865 7.06549 109.739 4.64679 106.762 4.64679C103.785 4.64679 101.692 7.03142 101.692 9.96111V10.0122C101.692 12.9419 103.819 15.3606 106.796 15.3606C109.773 15.3606 111.865 12.976 111.865 10.0463Z" fill="#D84327"></path>
  <path d="M117.462 2.48352H120.388L124.913 14.049L129.421 2.48352H132.279L126.036 17.643H123.722L117.462 2.48352Z" fill="#D84327"></path>
  <path d="M140.291 2.38135H142.74L149.358 17.5408H146.568L145.037 13.9127H137.926L136.378 17.5408H133.673L140.291 2.38135ZM144.067 11.5622L141.465 5.5495L138.896 11.5622H144.067Z" fill="#D84327"></path>
  <path d="M155.448 4.93629H150.685V2.48352H162.882V4.93629H158.119V17.5408H155.465V4.93629H155.448Z" fill="#D84327"></path>
  <path d="M167.356 2.48352H169.993V17.5237H167.356V2.48352Z" fill="#D84327"></path>
  <path d="M175.096 10.0463V9.99518C175.096 5.75394 178.362 2.21106 182.972 2.21106C187.583 2.21106 190.815 5.71988 190.815 9.94408V9.99518C190.815 14.2364 187.549 17.7793 182.938 17.7793C178.328 17.7793 175.096 14.2705 175.096 10.0463ZM188.042 10.0463V9.99518C188.042 7.06549 185.915 4.64679 182.938 4.64679C179.961 4.64679 177.869 7.03142 177.869 9.96111V10.0122C177.869 12.9419 179.995 15.3606 182.972 15.3606C185.949 15.3606 188.042 12.976 188.042 10.0463Z" fill="#D84327"></path>
  <path d="M195.901 2.48352H198.351L206.397 12.8907V2.48352H209V17.5237H206.789L198.504 6.82696V17.5237H195.901V2.48352Z" fill="#D84327"></path>
  <path d="M65.6284 26.8409H73.6918C78.455 26.8409 81.466 29.5662 81.466 33.6882V33.7393C81.466 38.3383 77.7915 40.7399 73.2835 40.7399H69.2178V47.3317H65.6284V26.8409ZM73.4026 37.5037C76.1244 37.5037 77.8086 35.9877 77.8086 33.8415V33.7904C77.8086 31.3888 76.0904 30.1283 73.4026 30.1283H69.2178V37.5037H73.4026Z" fill="#D84327"></path>
  <path d="M86.7734 37.1459V37.0948C86.7734 31.3376 91.2134 26.5002 97.5076 26.5002C103.802 26.5002 108.174 31.2695 108.174 37.0437V37.0948C108.174 42.852 103.734 47.6894 97.4396 47.6894C91.1454 47.6894 86.7734 42.9201 86.7734 37.1459ZM104.397 37.1459V37.0948C104.397 33.1091 101.505 29.8047 97.4396 29.8047C93.3738 29.8047 90.55 33.058 90.55 37.0267V37.0778C90.55 41.0635 93.4419 44.368 97.5076 44.368C101.573 44.368 104.397 41.1146 104.397 37.1459Z" fill="#D84327"></path>
  <path d="M115.012 26.841H124.13C126.699 26.841 128.723 27.6074 130.033 28.8849C131.122 29.9921 131.734 31.525 131.734 33.2965V33.3476C131.734 36.7201 129.71 38.73 126.852 39.5476L132.381 47.2977H128.145L123.127 40.1608H118.619V47.2977H115.029V26.8069L115.012 26.841ZM123.875 37.0097C126.444 37.0097 128.077 35.6641 128.077 33.5861V33.535C128.077 31.3377 126.495 30.1454 123.841 30.1454H118.619V37.0267H123.875V37.0097Z" fill="#D84327"></path>
  <path d="M143.404 30.1794H136.923V26.8409H153.526V30.1794H147.045V47.3317H143.421V30.1794H143.404Z" fill="#D84327"></path>
  <path d="M164.209 26.7046H167.544L176.543 47.3317H172.749L170.674 42.3921H160.994L158.885 47.3317H155.193L164.192 26.7046H164.209ZM169.347 39.1898L165.808 30.9969L162.304 39.1898H169.347Z" fill="#D84327"></path>
  <path d="M182.309 26.841H185.899V44.0444H196.65V47.3148H182.292V26.824L182.309 26.841Z" fill="#D84327"></path>
  <defs>
    <clipPath id="clip0_1690_638">
      <rect width="48.8709" height="48.8709" fill="white" transform="translate(0 48.871) rotate(-90)"></rect>
    </clipPath>
  </defs>
</svg>
